<mxfile host="" modified="2021-01-21T10:02:40.075Z" agent="5.0 (Windows NT 6.2; Win64; x64) AppleWebKit/537.36 (KHTML, like Gecko) Chrome/84.0.4147.105 Safari/537.36" etag="GkrwD7Y7DFhqiNPFDpAM" version="13.7.9" type="embed" pages="2"><diagram id="kgpKYQtTHZ0yAKxKKP6v" name="Marcar Consulta"><mxGraphModel dx="486" dy="431" grid="1" gridSize="10" guides="1" tooltips="1" connect="1" arrows="1" fold="1" page="1" pageScale="1" pageWidth="850" pageHeight="1100" math="0" shadow="0"><root><mxCell id="0"/><mxCell id="1" parent="0"/><mxCell id="F6ioT5Sw9zix-FrWTJoX-1" value="" style="rounded=0;whiteSpace=wrap;html=1;fontColor=#000000;align=left;fillColor=none;" parent="1" vertex="1"><mxGeometry x="20" y="420" width="810" height="440" as="geometry"/></mxCell><mxCell id="3nuBFxr9cyL0pnOWT2aG-1" value=":Interface" style="shape=umlLifeline;perimeter=lifelinePerimeter;container=1;collapsible=0;recursiveResize=0;rounded=0;shadow=0;strokeWidth=1;" parent="1" vertex="1"><mxGeometry x="280" y="70" width="100" height="810" as="geometry"/></mxCell><mxCell id="3nuBFxr9cyL0pnOWT2aG-2" value="" style="points=[];perimeter=orthogonalPerimeter;rounded=0;shadow=0;strokeWidth=1;" parent="3nuBFxr9cyL0pnOWT2aG-1" vertex="1"><mxGeometry x="45" y="80" width="10" height="100" as="geometry"/></mxCell><mxCell id="YQtkqXcjkH6NP58llE0U-8" value="" style="points=[];perimeter=orthogonalPerimeter;rounded=0;shadow=0;strokeWidth=1;" parent="3nuBFxr9cyL0pnOWT2aG-1" vertex="1"><mxGeometry x="45" y="210" width="10" height="50" as="geometry"/></mxCell><mxCell id="YQtkqXcjkH6NP58llE0U-16" value="" style="points=[];perimeter=orthogonalPerimeter;rounded=0;shadow=0;strokeWidth=1;" parent="3nuBFxr9cyL0pnOWT2aG-1" vertex="1"><mxGeometry x="45" y="290" width="10" height="50" as="geometry"/></mxCell><mxCell id="YQtkqXcjkH6NP58llE0U-29" value="" style="points=[];perimeter=orthogonalPerimeter;rounded=0;shadow=0;strokeWidth=1;" parent="3nuBFxr9cyL0pnOWT2aG-1" vertex="1"><mxGeometry x="45" y="393" width="10" height="67" as="geometry"/></mxCell><mxCell id="YQtkqXcjkH6NP58llE0U-46" value="" style="points=[];perimeter=orthogonalPerimeter;rounded=0;shadow=0;strokeWidth=1;" parent="3nuBFxr9cyL0pnOWT2aG-1" vertex="1"><mxGeometry x="45" y="530" width="10" height="50" as="geometry"/></mxCell><mxCell id="YQtkqXcjkH6NP58llE0U-56" value="" style="points=[];perimeter=orthogonalPerimeter;rounded=0;shadow=0;strokeWidth=1;" parent="3nuBFxr9cyL0pnOWT2aG-1" vertex="1"><mxGeometry x="45" y="620" width="10" height="130" as="geometry"/></mxCell><mxCell id="3nuBFxr9cyL0pnOWT2aG-5" value=":S.I." style="shape=umlLifeline;perimeter=lifelinePerimeter;container=1;collapsible=0;recursiveResize=0;rounded=0;shadow=0;strokeWidth=1;" parent="1" vertex="1"><mxGeometry x="520" y="70" width="100" height="810" as="geometry"/></mxCell><mxCell id="3nuBFxr9cyL0pnOWT2aG-6" value="" style="points=[];perimeter=orthogonalPerimeter;rounded=0;shadow=0;strokeWidth=1;" parent="3nuBFxr9cyL0pnOWT2aG-5" vertex="1"><mxGeometry x="45" y="110" width="10" height="70" as="geometry"/></mxCell><mxCell id="YQtkqXcjkH6NP58llE0U-7" value="" style="points=[];perimeter=orthogonalPerimeter;rounded=0;shadow=0;strokeWidth=1;" parent="3nuBFxr9cyL0pnOWT2aG-5" vertex="1"><mxGeometry x="45" y="210" width="10" height="50" as="geometry"/></mxCell><mxCell id="YQtkqXcjkH6NP58llE0U-19" value="" style="points=[];perimeter=orthogonalPerimeter;rounded=0;shadow=0;strokeWidth=1;" parent="3nuBFxr9cyL0pnOWT2aG-5" vertex="1"><mxGeometry x="45" y="300" width="10" height="40" as="geometry"/></mxCell><mxCell id="YQtkqXcjkH6NP58llE0U-30" value="" style="points=[];perimeter=orthogonalPerimeter;rounded=0;shadow=0;strokeWidth=1;" parent="3nuBFxr9cyL0pnOWT2aG-5" vertex="1"><mxGeometry x="45" y="403" width="10" height="67" as="geometry"/></mxCell><mxCell id="YQtkqXcjkH6NP58llE0U-47" value="" style="points=[];perimeter=orthogonalPerimeter;rounded=0;shadow=0;strokeWidth=1;" parent="3nuBFxr9cyL0pnOWT2aG-5" vertex="1"><mxGeometry x="45" y="540" width="10" height="40" as="geometry"/></mxCell><mxCell id="YQtkqXcjkH6NP58llE0U-57" value="" style="points=[];perimeter=orthogonalPerimeter;rounded=0;shadow=0;strokeWidth=1;" parent="3nuBFxr9cyL0pnOWT2aG-5" vertex="1"><mxGeometry x="45" y="630" width="10" height="120" as="geometry"/></mxCell><mxCell id="YQtkqXcjkH6NP58llE0U-1" value="&lt;u&gt;Utente&lt;/u&gt;" style="shape=umlActor;verticalLabelPosition=bottom;verticalAlign=top;html=1;outlineConnect=0;" parent="1" vertex="1"><mxGeometry x="50" y="20" width="30" height="60" as="geometry"/></mxCell><mxCell id="3nuBFxr9cyL0pnOWT2aG-3" value="fazer log in (nºutente)" style="verticalAlign=bottom;startArrow=none;endArrow=open;startSize=8;shadow=0;strokeWidth=1;endFill=0;startFill=0;" parent="1" edge="1"><mxGeometry x="-0.1481" y="2" relative="1" as="geometry"><mxPoint x="65" y="152" as="sourcePoint"/><mxPoint x="330" y="152" as="targetPoint"/><mxPoint as="offset"/></mxGeometry></mxCell><mxCell id="YQtkqXcjkH6NP58llE0U-2" style="edgeStyle=elbowEdgeStyle;rounded=0;orthogonalLoop=1;jettySize=auto;html=1;endArrow=classic;endFill=1;" parent="1" source="3nuBFxr9cyL0pnOWT2aG-2" target="3nuBFxr9cyL0pnOWT2aG-6" edge="1"><mxGeometry relative="1" as="geometry"><Array as="points"><mxPoint x="400" y="220"/><mxPoint x="490" y="210"/><mxPoint x="413" y="210"/></Array></mxGeometry></mxCell><mxCell id="YQtkqXcjkH6NP58llE0U-3" value="obter lista de especialidades()" style="edgeLabel;html=1;align=center;verticalAlign=middle;resizable=0;points=[];" parent="YQtkqXcjkH6NP58llE0U-2" vertex="1" connectable="0"><mxGeometry x="0.1032" y="1" relative="1" as="geometry"><mxPoint x="-32" y="-9" as="offset"/></mxGeometry></mxCell><mxCell id="YQtkqXcjkH6NP58llE0U-4" style="edgeStyle=elbowEdgeStyle;rounded=0;orthogonalLoop=1;jettySize=auto;html=1;dashed=1;endArrow=open;endFill=0;" parent="1" source="3nuBFxr9cyL0pnOWT2aG-6" edge="1"><mxGeometry relative="1" as="geometry"><mxPoint x="340" y="241" as="targetPoint"/><Array as="points"><mxPoint x="560" y="241"/><mxPoint x="540" y="240"/><mxPoint x="520" y="230"/></Array></mxGeometry></mxCell><mxCell id="YQtkqXcjkH6NP58llE0U-5" value="" style="endArrow=none;dashed=1;html=1;dashPattern=1 3;strokeWidth=2;fontColor=#0000CC;" parent="1" edge="1"><mxGeometry width="50" height="50" relative="1" as="geometry"><mxPoint x="65" y="880" as="sourcePoint"/><mxPoint x="65" y="100" as="targetPoint"/></mxGeometry></mxCell><mxCell id="YQtkqXcjkH6NP58llE0U-9" value="" style="endArrow=open;html=1;endFill=0;entryX=0.1;entryY=0;entryDx=0;entryDy=0;entryPerimeter=0;" parent="1" target="YQtkqXcjkH6NP58llE0U-8" edge="1"><mxGeometry width="50" height="50" relative="1" as="geometry"><mxPoint x="70" y="280" as="sourcePoint"/><mxPoint x="330" y="210" as="targetPoint"/></mxGeometry></mxCell><mxCell id="YQtkqXcjkH6NP58llE0U-10" value="escolher especialidade (ID_especialidade)" style="edgeLabel;html=1;align=center;verticalAlign=middle;resizable=0;points=[];" parent="YQtkqXcjkH6NP58llE0U-9" vertex="1" connectable="0"><mxGeometry x="0.1082" y="2" relative="1" as="geometry"><mxPoint x="3" y="-8" as="offset"/></mxGeometry></mxCell><mxCell id="YQtkqXcjkH6NP58llE0U-11" style="edgeStyle=elbowEdgeStyle;rounded=0;orthogonalLoop=1;jettySize=auto;html=1;startArrow=none;startFill=0;endArrow=classic;endFill=1;" parent="1" source="YQtkqXcjkH6NP58llE0U-8" target="3nuBFxr9cyL0pnOWT2aG-5" edge="1"><mxGeometry relative="1" as="geometry"><mxPoint x="540" y="289" as="targetPoint"/><Array as="points"><mxPoint x="390" y="285"/><mxPoint x="370" y="290"/><mxPoint x="530" y="292"/><mxPoint x="550" y="288"/><mxPoint x="490" y="288"/><mxPoint x="280" y="288"/></Array></mxGeometry></mxCell><mxCell id="YQtkqXcjkH6NP58llE0U-12" value="obter lista de meses()" style="edgeLabel;html=1;align=center;verticalAlign=middle;resizable=0;points=[];" parent="YQtkqXcjkH6NP58llE0U-11" vertex="1" connectable="0"><mxGeometry x="0.1456" y="2" relative="1" as="geometry"><mxPoint x="-59" y="-8" as="offset"/></mxGeometry></mxCell><mxCell id="YQtkqXcjkH6NP58llE0U-13" value="" style="endArrow=open;html=1;endFill=0;dashed=1;" parent="1" target="YQtkqXcjkH6NP58llE0U-8" edge="1"><mxGeometry width="50" height="50" relative="1" as="geometry"><mxPoint x="560" y="320" as="sourcePoint"/><mxPoint x="350" y="306" as="targetPoint"/></mxGeometry></mxCell><mxCell id="YQtkqXcjkH6NP58llE0U-20" value="" style="endArrow=open;html=1;endFill=0;" parent="1" edge="1"><mxGeometry width="50" height="50" relative="1" as="geometry"><mxPoint x="70" y="360" as="sourcePoint"/><mxPoint x="330" y="360" as="targetPoint"/></mxGeometry></mxCell><mxCell id="YQtkqXcjkH6NP58llE0U-21" value="escolher mês (mês)" style="edgeLabel;html=1;align=center;verticalAlign=middle;resizable=0;points=[];" parent="YQtkqXcjkH6NP58llE0U-20" vertex="1" connectable="0"><mxGeometry x="0.1082" y="2" relative="1" as="geometry"><mxPoint x="-50" y="-8" as="offset"/></mxGeometry></mxCell><mxCell id="YQtkqXcjkH6NP58llE0U-22" value="" style="endArrow=classic;html=1;endFill=1;" parent="1" target="3nuBFxr9cyL0pnOWT2aG-5" edge="1"><mxGeometry width="50" height="50" relative="1" as="geometry"><mxPoint x="340" y="370" as="sourcePoint"/><mxPoint x="560" y="370" as="targetPoint"/></mxGeometry></mxCell><mxCell id="YQtkqXcjkH6NP58llE0U-23" value="obter listas de dias com vaga ()" style="edgeLabel;html=1;align=center;verticalAlign=middle;resizable=0;points=[];" parent="YQtkqXcjkH6NP58llE0U-22" vertex="1" connectable="0"><mxGeometry x="0.1082" y="2" relative="1" as="geometry"><mxPoint x="-27" y="-8" as="offset"/></mxGeometry></mxCell><mxCell id="YQtkqXcjkH6NP58llE0U-24" value="" style="endArrow=open;html=1;endFill=0;dashed=1;" parent="1" edge="1"><mxGeometry width="50" height="50" relative="1" as="geometry"><mxPoint x="564" y="401" as="sourcePoint"/><mxPoint x="340" y="401" as="targetPoint"/></mxGeometry></mxCell><mxCell id="3nuBFxr9cyL0pnOWT2aG-8" value="procurar utilizador (nºutente)" style="verticalAlign=bottom;endArrow=classic;shadow=0;strokeWidth=1;edgeStyle=elbowEdgeStyle;endFill=1;" parent="1" source="3nuBFxr9cyL0pnOWT2aG-2" target="3nuBFxr9cyL0pnOWT2aG-5" edge="1"><mxGeometry x="-0.1898" relative="1" as="geometry"><mxPoint x="275" y="160" as="sourcePoint"/><mxPoint x="590" y="170" as="targetPoint"/><Array as="points"><mxPoint x="440" y="180"/></Array><mxPoint as="offset"/></mxGeometry></mxCell><mxCell id="YQtkqXcjkH6NP58llE0U-26" style="edgeStyle=elbowEdgeStyle;rounded=0;orthogonalLoop=1;jettySize=auto;html=1;dashed=1;endArrow=open;endFill=0;" parent="1" edge="1"><mxGeometry relative="1" as="geometry"><mxPoint x="560" y="200" as="sourcePoint"/><mxPoint x="340" y="200" as="targetPoint"/><Array as="points"><mxPoint x="450" y="200"/></Array></mxGeometry></mxCell><mxCell id="YQtkqXcjkH6NP58llE0U-27" value="" style="endArrow=open;html=1;endFill=0;" parent="1" edge="1"><mxGeometry width="50" height="50" relative="1" as="geometry"><mxPoint x="65.5" y="463" as="sourcePoint"/><mxPoint x="330" y="463" as="targetPoint"/></mxGeometry></mxCell><mxCell id="YQtkqXcjkH6NP58llE0U-28" value="&lt;div style=&quot;text-align: left&quot;&gt;[sem vagas]&amp;nbsp;&amp;nbsp;&lt;/div&gt;&lt;div style=&quot;text-align: left&quot;&gt;preencher formulário (nºutente, ID_especialidade)&lt;/div&gt;" style="edgeLabel;html=1;align=center;verticalAlign=middle;resizable=0;points=[];" parent="YQtkqXcjkH6NP58llE0U-27" vertex="1" connectable="0"><mxGeometry x="0.1082" y="2" relative="1" as="geometry"><mxPoint x="-12.5" y="-21" as="offset"/></mxGeometry></mxCell><mxCell id="YQtkqXcjkH6NP58llE0U-31" value="" style="endArrow=classicThin;html=1;endFill=1;" parent="1" edge="1"><mxGeometry width="50" height="50" relative="1" as="geometry"><mxPoint x="340" y="473" as="sourcePoint"/><mxPoint x="570" y="473" as="targetPoint"/></mxGeometry></mxCell><mxCell id="YQtkqXcjkH6NP58llE0U-32" value="criar pedido para Lista de &lt;br&gt;espera (nºutente, ID_especialidade)" style="edgeLabel;html=1;align=left;verticalAlign=middle;resizable=0;points=[];" parent="YQtkqXcjkH6NP58llE0U-31" vertex="1" connectable="0"><mxGeometry x="0.1082" y="2" relative="1" as="geometry"><mxPoint x="-107" y="-18" as="offset"/></mxGeometry></mxCell><mxCell id="YQtkqXcjkH6NP58llE0U-33" value="Diagrama de Sequência - Marcar Consulta" style="rounded=0;whiteSpace=wrap;html=1;fontColor=#0000CC;" parent="1" vertex="1"><mxGeometry x="460" y="10" width="380" height="30" as="geometry"/></mxCell><mxCell id="YQtkqXcjkH6NP58llE0U-36" value=":Lista de Espera" style="shape=umlLifeline;perimeter=lifelinePerimeter;container=1;collapsible=0;recursiveResize=0;rounded=0;shadow=0;strokeWidth=1;" parent="1" vertex="1"><mxGeometry x="750" y="70" width="90" height="810" as="geometry"/></mxCell><mxCell id="YQtkqXcjkH6NP58llE0U-40" value="" style="points=[];perimeter=orthogonalPerimeter;rounded=0;shadow=0;strokeWidth=1;" parent="YQtkqXcjkH6NP58llE0U-36" vertex="1"><mxGeometry x="40" y="443" width="10" height="30" as="geometry"/></mxCell><mxCell id="YQtkqXcjkH6NP58llE0U-41" value="" style="endArrow=classicThin;html=1;endFill=1;entryX=-0.2;entryY=0.033;entryDx=0;entryDy=0;entryPerimeter=0;" parent="1" target="YQtkqXcjkH6NP58llE0U-40" edge="1"><mxGeometry width="50" height="50" relative="1" as="geometry"><mxPoint x="580" y="514" as="sourcePoint"/><mxPoint x="780" y="483" as="targetPoint"/></mxGeometry></mxCell><mxCell id="YQtkqXcjkH6NP58llE0U-42" value="adicionar à lista de &lt;br&gt;espera (nºutente, ID:especialidade)" style="edgeLabel;html=1;align=left;verticalAlign=middle;resizable=0;points=[];" parent="YQtkqXcjkH6NP58llE0U-41" vertex="1" connectable="0"><mxGeometry x="0.1082" y="2" relative="1" as="geometry"><mxPoint x="-91" y="-18" as="offset"/></mxGeometry></mxCell><mxCell id="YQtkqXcjkH6NP58llE0U-44" value="" style="endArrow=open;html=1;endFill=0;entryX=0;entryY=0.02;entryDx=0;entryDy=0;entryPerimeter=0;" parent="1" target="YQtkqXcjkH6NP58llE0U-46" edge="1"><mxGeometry width="50" height="50" relative="1" as="geometry"><mxPoint x="68" y="601" as="sourcePoint"/><mxPoint x="320" y="570" as="targetPoint"/></mxGeometry></mxCell><mxCell id="YQtkqXcjkH6NP58llE0U-45" value="&lt;div style=&quot;text-align: left&quot;&gt;[com vagas]&amp;nbsp;&amp;nbsp;&lt;/div&gt;&lt;div style=&quot;text-align: left&quot;&gt;escolher dia (dia)&lt;/div&gt;" style="edgeLabel;html=1;align=center;verticalAlign=middle;resizable=0;points=[];" parent="YQtkqXcjkH6NP58llE0U-44" vertex="1" connectable="0"><mxGeometry x="0.1082" y="2" relative="1" as="geometry"><mxPoint x="-80" y="-18" as="offset"/></mxGeometry></mxCell><mxCell id="YQtkqXcjkH6NP58llE0U-48" value="" style="endArrow=classicThin;html=1;endFill=1;" parent="1" edge="1"><mxGeometry width="50" height="50" relative="1" as="geometry"><mxPoint x="340" y="610" as="sourcePoint"/><mxPoint x="570" y="610" as="targetPoint"/></mxGeometry></mxCell><mxCell id="YQtkqXcjkH6NP58llE0U-49" value="obter lista de vagas()&amp;nbsp;" style="edgeLabel;html=1;align=left;verticalAlign=middle;resizable=0;points=[];" parent="YQtkqXcjkH6NP58llE0U-48" vertex="1" connectable="0"><mxGeometry x="0.1082" y="2" relative="1" as="geometry"><mxPoint x="-107" y="-8" as="offset"/></mxGeometry></mxCell><mxCell id="YQtkqXcjkH6NP58llE0U-50" value="criar consulta &lt;br&gt;(nºutente, ID_especialidade, data, hora)" style="edgeLabel;html=1;align=left;verticalAlign=middle;resizable=0;points=[];" parent="YQtkqXcjkH6NP58llE0U-48" vertex="1" connectable="0"><mxGeometry x="0.1082" y="2" relative="1" as="geometry"><mxPoint x="-107" y="72" as="offset"/></mxGeometry></mxCell><mxCell id="YQtkqXcjkH6NP58llE0U-51" value="" style="endArrow=open;html=1;endFill=0;dashed=1;" parent="1" edge="1"><mxGeometry width="50" height="50" relative="1" as="geometry"><mxPoint x="564" y="639.5" as="sourcePoint"/><mxPoint x="340" y="639.5" as="targetPoint"/></mxGeometry></mxCell><mxCell id="YQtkqXcjkH6NP58llE0U-53" value="" style="endArrow=open;html=1;endFill=0;" parent="1" edge="1"><mxGeometry width="50" height="50" relative="1" as="geometry"><mxPoint x="70" y="690" as="sourcePoint"/><mxPoint x="330" y="690" as="targetPoint"/></mxGeometry></mxCell><mxCell id="YQtkqXcjkH6NP58llE0U-54" value="escolher vaga (hora)" style="edgeLabel;html=1;align=center;verticalAlign=middle;resizable=0;points=[];" parent="YQtkqXcjkH6NP58llE0U-53" vertex="1" connectable="0"><mxGeometry x="0.1082" y="2" relative="1" as="geometry"><mxPoint x="-39" y="-8" as="offset"/></mxGeometry></mxCell><mxCell id="YQtkqXcjkH6NP58llE0U-58" value="" style="endArrow=classicThin;html=1;endFill=1;" parent="1" edge="1"><mxGeometry width="50" height="50" relative="1" as="geometry"><mxPoint x="340" y="700" as="sourcePoint"/><mxPoint x="560" y="700" as="targetPoint"/></mxGeometry></mxCell><mxCell id="YQtkqXcjkH6NP58llE0U-61" value=": consulta" style="rounded=0;whiteSpace=wrap;html=1;align=left;" parent="1" vertex="1"><mxGeometry x="730" y="720" width="60" height="30" as="geometry"/></mxCell><mxCell id="YQtkqXcjkH6NP58llE0U-64" value="" style="endArrow=none;dashed=1;html=1;dashPattern=1 3;strokeWidth=2;fontColor=#000000;entryX=-0.2;entryY=-0.05;entryDx=0;entryDy=0;exitX=1.1;exitY=0.2;exitDx=0;exitDy=0;exitPerimeter=0;entryPerimeter=0;" parent="1" source="YQtkqXcjkH6NP58llE0U-57" target="YQtkqXcjkH6NP58llE0U-66" edge="1"><mxGeometry width="50" height="50" relative="1" as="geometry"><mxPoint x="470" y="760" as="sourcePoint"/><mxPoint x="520" y="710" as="targetPoint"/></mxGeometry></mxCell><mxCell id="YQtkqXcjkH6NP58llE0U-65" value="" style="endArrow=none;dashed=1;html=1;dashPattern=1 3;strokeWidth=2;fontColor=#000000;entryX=0.1;entryY=0.925;entryDx=0;entryDy=0;exitX=1;exitY=0.875;exitDx=0;exitDy=0;exitPerimeter=0;entryPerimeter=0;" parent="1" source="YQtkqXcjkH6NP58llE0U-57" target="YQtkqXcjkH6NP58llE0U-66" edge="1"><mxGeometry width="50" height="50" relative="1" as="geometry"><mxPoint x="470" y="760" as="sourcePoint"/><mxPoint x="520" y="710" as="targetPoint"/></mxGeometry></mxCell><mxCell id="YQtkqXcjkH6NP58llE0U-68" value="" style="endArrow=classicThin;html=1;endFill=1;" parent="1" edge="1"><mxGeometry width="50" height="50" relative="1" as="geometry"><mxPoint x="610" y="764.5" as="sourcePoint"/><mxPoint x="759" y="764.5" as="targetPoint"/></mxGeometry></mxCell><mxCell id="YQtkqXcjkH6NP58llE0U-69" value="guarda()" style="edgeLabel;html=1;align=center;verticalAlign=middle;resizable=0;points=[];fontColor=#000000;" parent="YQtkqXcjkH6NP58llE0U-68" vertex="1" connectable="0"><mxGeometry x="-0.2753" y="-2" relative="1" as="geometry"><mxPoint x="-5" y="-11.999999999999998" as="offset"/></mxGeometry></mxCell><mxCell id="YQtkqXcjkH6NP58llE0U-72" value="" style="endArrow=none;dashed=1;html=1;dashPattern=1 3;strokeWidth=2;fontColor=#000000;entryX=0.5;entryY=1;entryDx=0;entryDy=0;entryPerimeter=0;" parent="1" target="YQtkqXcjkH6NP58llE0U-61" edge="1"><mxGeometry width="50" height="50" relative="1" as="geometry"><mxPoint x="760" y="820" as="sourcePoint"/><mxPoint x="760" y="756" as="targetPoint"/></mxGeometry></mxCell><mxCell id="YQtkqXcjkH6NP58llE0U-66" value="" style="points=[];perimeter=orthogonalPerimeter;rounded=0;shadow=0;strokeWidth=1;" parent="1" vertex="1"><mxGeometry x="600" y="730" width="10" height="70" as="geometry"/></mxCell><mxCell id="YQtkqXcjkH6NP58llE0U-75" value="" style="endArrow=open;html=1;fontColor=#000000;entryX=0;entryY=0.5;entryDx=0;entryDy=0;endFill=0;exitX=1;exitY=0.057;exitDx=0;exitDy=0;exitPerimeter=0;" parent="1" source="YQtkqXcjkH6NP58llE0U-66" target="YQtkqXcjkH6NP58llE0U-61" edge="1"><mxGeometry width="50" height="50" relative="1" as="geometry"><mxPoint x="613" y="695" as="sourcePoint"/><mxPoint x="460" y="670" as="targetPoint"/></mxGeometry></mxCell><mxCell id="YQtkqXcjkH6NP58llE0U-76" value="&amp;lt;&amp;lt;create &amp;gt;&amp;gt;" style="edgeLabel;html=1;align=center;verticalAlign=middle;resizable=0;points=[];fontColor=#000000;" parent="YQtkqXcjkH6NP58llE0U-75" vertex="1" connectable="0"><mxGeometry x="-0.2991" relative="1" as="geometry"><mxPoint x="6" y="-15" as="offset"/></mxGeometry></mxCell><mxCell id="YQtkqXcjkH6NP58llE0U-77" value="" style="endArrow=open;html=1;fontColor=#000000;entryX=1.4;entryY=0.957;entryDx=0;entryDy=0;entryPerimeter=0;dashed=1;endFill=0;" parent="1" target="YQtkqXcjkH6NP58llE0U-66" edge="1"><mxGeometry width="50" height="50" relative="1" as="geometry"><mxPoint x="760" y="797" as="sourcePoint"/><mxPoint x="460" y="670" as="targetPoint"/></mxGeometry></mxCell><mxCell id="YQtkqXcjkH6NP58llE0U-79" value="remover vaga&lt;br&gt;&amp;nbsp;(data, hora)" style="edgeLabel;html=1;align=center;verticalAlign=middle;resizable=0;points=[];fontColor=#000000;" parent="YQtkqXcjkH6NP58llE0U-77" vertex="1" connectable="0"><mxGeometry x="0.274" relative="1" as="geometry"><mxPoint x="3" y="-16.99" as="offset"/></mxGeometry></mxCell><mxCell id="YQtkqXcjkH6NP58llE0U-80" value="" style="endArrow=open;html=1;dashed=1;fontColor=#000000;entryX=1.4;entryY=0.954;entryDx=0;entryDy=0;entryPerimeter=0;exitX=0;exitY=0.925;exitDx=0;exitDy=0;exitPerimeter=0;endFill=0;" parent="1" source="YQtkqXcjkH6NP58llE0U-57" target="YQtkqXcjkH6NP58llE0U-56" edge="1"><mxGeometry width="50" height="50" relative="1" as="geometry"><mxPoint x="410" y="810" as="sourcePoint"/><mxPoint x="460" y="760" as="targetPoint"/></mxGeometry></mxCell><mxCell id="UlWRZiljdsw1bA-XSTTg-1" value="" style="endArrow=open;html=1;fontColor=#000000;endFill=0;" parent="1" target="3nuBFxr9cyL0pnOWT2aG-1" edge="1"><mxGeometry width="50" height="50" relative="1" as="geometry"><mxPoint x="70" y="120" as="sourcePoint"/><mxPoint x="430" y="70" as="targetPoint"/></mxGeometry></mxCell><mxCell id="UlWRZiljdsw1bA-XSTTg-2" value="&amp;lt;&amp;lt;create&amp;gt;&amp;gt;" style="edgeLabel;html=1;align=center;verticalAlign=middle;resizable=0;points=[];fontColor=#000000;" parent="UlWRZiljdsw1bA-XSTTg-1" vertex="1" connectable="0"><mxGeometry x="-0.4451" relative="1" as="geometry"><mxPoint x="8" y="-10" as="offset"/></mxGeometry></mxCell><mxCell id="UlWRZiljdsw1bA-XSTTg-3" value="" style="endArrow=open;html=1;fontColor=#000000;endFill=0;" parent="1" edge="1"><mxGeometry width="50" height="50" relative="1" as="geometry"><mxPoint x="335" y="150" as="sourcePoint"/><mxPoint x="570" y="150" as="targetPoint"/></mxGeometry></mxCell><mxCell id="UlWRZiljdsw1bA-XSTTg-4" value="&amp;lt;&amp;lt;create&amp;gt;&amp;gt;" style="edgeLabel;html=1;align=center;verticalAlign=middle;resizable=0;points=[];fontColor=#000000;" parent="UlWRZiljdsw1bA-XSTTg-3" vertex="1" connectable="0"><mxGeometry x="-0.4451" relative="1" as="geometry"><mxPoint x="8" y="-10" as="offset"/></mxGeometry></mxCell><mxCell id="UlWRZiljdsw1bA-XSTTg-5" value="" style="endArrow=open;html=1;fontColor=#000000;endFill=0;exitX=1.2;exitY=0.045;exitDx=0;exitDy=0;exitPerimeter=0;" parent="1" source="YQtkqXcjkH6NP58llE0U-30" target="YQtkqXcjkH6NP58llE0U-36" edge="1"><mxGeometry width="50" height="50" relative="1" as="geometry"><mxPoint x="680" y="420" as="sourcePoint"/><mxPoint x="915" y="420" as="targetPoint"/></mxGeometry></mxCell><mxCell id="UlWRZiljdsw1bA-XSTTg-6" value="&amp;lt;&amp;lt;create&amp;gt;&amp;gt;" style="edgeLabel;html=1;align=center;verticalAlign=middle;resizable=0;points=[];fontColor=#000000;" parent="UlWRZiljdsw1bA-XSTTg-5" vertex="1" connectable="0"><mxGeometry x="-0.4451" relative="1" as="geometry"><mxPoint x="8" y="-10" as="offset"/></mxGeometry></mxCell><mxCell id="F6ioT5Sw9zix-FrWTJoX-2" value="" style="endArrow=none;dashed=1;html=1;dashPattern=1 3;strokeWidth=2;fontColor=#000000;exitX=0;exitY=0.313;exitDx=0;exitDy=0;exitPerimeter=0;entryX=1;entryY=0.325;entryDx=0;entryDy=0;entryPerimeter=0;" parent="1" source="F6ioT5Sw9zix-FrWTJoX-1" target="F6ioT5Sw9zix-FrWTJoX-1" edge="1"><mxGeometry width="50" height="50" relative="1" as="geometry"><mxPoint x="420" y="620" as="sourcePoint"/><mxPoint x="820" y="592" as="targetPoint"/></mxGeometry></mxCell><mxCell id="F6ioT5Sw9zix-FrWTJoX-3" value="ALT" style="text;html=1;strokeColor=none;fillColor=none;align=center;verticalAlign=middle;whiteSpace=wrap;rounded=0;fontColor=#000000;fontStyle=1;fontSize=14;" parent="1" vertex="1"><mxGeometry x="20" y="430" width="40" height="20" as="geometry"/></mxCell><mxCell id="F6ioT5Sw9zix-FrWTJoX-4" value="" style="endArrow=open;html=1;dashed=1;fontColor=#000000;entryX=1.4;entryY=0.954;entryDx=0;entryDy=0;entryPerimeter=0;endFill=0;" parent="1" edge="1"><mxGeometry width="50" height="50" relative="1" as="geometry"><mxPoint x="566" y="523" as="sourcePoint"/><mxPoint x="340" y="523.02" as="targetPoint"/></mxGeometry></mxCell><mxCell id="F6ioT5Sw9zix-FrWTJoX-6" value="" style="endArrow=open;html=1;dashed=1;fontColor=#000000;endFill=0;" parent="1" edge="1"><mxGeometry width="50" height="50" relative="1" as="geometry"><mxPoint x="790" y="533" as="sourcePoint"/><mxPoint x="580" y="533" as="targetPoint"/></mxGeometry></mxCell></root></mxGraphModel></diagram><diagram id="E08cELNSYF4maGqlxNNl" name="Desmarcar Consulta"><mxGraphModel dx="486" dy="431" grid="1" gridSize="10" guides="1" tooltips="1" connect="1" arrows="1" fold="1" page="1" pageScale="1" pageWidth="827" pageHeight="1169" math="0" shadow="0"><root><mxCell id="CQdg7doARLt-vxPC2LLc-0"/><mxCell id="CQdg7doARLt-vxPC2LLc-1" parent="CQdg7doARLt-vxPC2LLc-0"/><mxCell id="v-d1ZgnJgfTMmsWn8UQr-0" value="Diagrama de Sequência - Desmarcar Consulta" style="rounded=0;whiteSpace=wrap;html=1;fontColor=#0000CC;" parent="CQdg7doARLt-vxPC2LLc-1" vertex="1"><mxGeometry x="430" y="10" width="380" height="30" as="geometry"/></mxCell><mxCell id="dFjp2i41HHwRCopWuz6G-0" value="&lt;u&gt;&lt;font color=&quot;#000000&quot;&gt;Utente&lt;/font&gt;&lt;/u&gt;" style="shape=umlActor;verticalLabelPosition=bottom;verticalAlign=top;html=1;outlineConnect=0;fillColor=none;fontSize=14;fontColor=#0000CC;align=left;" parent="CQdg7doARLt-vxPC2LLc-1" vertex="1"><mxGeometry x="50" y="80" width="30" height="60" as="geometry"/></mxCell><mxCell id="jHzUtfri1Kk9_LL_Pwk0-0" value="" style="endArrow=none;dashed=1;html=1;dashPattern=1 3;strokeWidth=2;fontSize=14;fontColor=#0000CC;" parent="CQdg7doARLt-vxPC2LLc-1" edge="1"><mxGeometry width="50" height="50" relative="1" as="geometry"><mxPoint x="65" y="480" as="sourcePoint"/><mxPoint x="65" y="170" as="targetPoint"/></mxGeometry></mxCell><mxCell id="kzw8o5ljCFYOWvP23XiK-0" value="" style="endArrow=open;html=1;fontColor=#000000;endFill=0;" parent="CQdg7doARLt-vxPC2LLc-1" edge="1"><mxGeometry width="50" height="50" relative="1" as="geometry"><mxPoint x="70" y="180" as="sourcePoint"/><mxPoint x="329.5" y="180" as="targetPoint"/></mxGeometry></mxCell><mxCell id="kzw8o5ljCFYOWvP23XiK-1" value="&amp;lt;&amp;lt;create&amp;gt;&amp;gt;" style="edgeLabel;html=1;align=center;verticalAlign=middle;resizable=0;points=[];fontColor=#000000;" parent="kzw8o5ljCFYOWvP23XiK-0" vertex="1" connectable="0"><mxGeometry x="-0.4451" relative="1" as="geometry"><mxPoint x="8" y="-10" as="offset"/></mxGeometry></mxCell><mxCell id="1dlvMJWvUST6Cndw6tlz-0" value=":Interface" style="shape=umlLifeline;perimeter=lifelinePerimeter;container=1;collapsible=0;recursiveResize=0;rounded=0;shadow=0;strokeWidth=1;" parent="CQdg7doARLt-vxPC2LLc-1" vertex="1"><mxGeometry x="280" y="120" width="100" height="360" as="geometry"/></mxCell><mxCell id="1dlvMJWvUST6Cndw6tlz-1" value="" style="points=[];perimeter=orthogonalPerimeter;rounded=0;shadow=0;strokeWidth=1;" parent="1dlvMJWvUST6Cndw6tlz-0" vertex="1"><mxGeometry x="45" y="90" width="10" height="100" as="geometry"/></mxCell><mxCell id="1dlvMJWvUST6Cndw6tlz-2" value="" style="points=[];perimeter=orthogonalPerimeter;rounded=0;shadow=0;strokeWidth=1;" parent="1dlvMJWvUST6Cndw6tlz-0" vertex="1"><mxGeometry x="45" y="210" width="10" height="110" as="geometry"/></mxCell><mxCell id="cL4TDwWrCyU1nzeevS6B-0" value=":S.I." style="shape=umlLifeline;perimeter=lifelinePerimeter;container=1;collapsible=0;recursiveResize=0;rounded=0;shadow=0;strokeWidth=1;" parent="CQdg7doARLt-vxPC2LLc-1" vertex="1"><mxGeometry x="520" y="120" width="100" height="360" as="geometry"/></mxCell><mxCell id="cL4TDwWrCyU1nzeevS6B-1" value="" style="points=[];perimeter=orthogonalPerimeter;rounded=0;shadow=0;strokeWidth=1;" parent="cL4TDwWrCyU1nzeevS6B-0" vertex="1"><mxGeometry x="45" y="110" width="10" height="70" as="geometry"/></mxCell><mxCell id="cL4TDwWrCyU1nzeevS6B-2" value="" style="points=[];perimeter=orthogonalPerimeter;rounded=0;shadow=0;strokeWidth=1;" parent="cL4TDwWrCyU1nzeevS6B-0" vertex="1"><mxGeometry x="45" y="220" width="10" height="100" as="geometry"/></mxCell><mxCell id="MN08_oUwmegF-1oIaOJk-2" value="&lt;font color=&quot;#000000&quot;&gt;&lt;span style=&quot;font-size: 11px&quot;&gt;abrir vaga (data, hora)&lt;/span&gt;&lt;/font&gt;" style="endArrow=classic;html=1;fontSize=14;fontColor=#0000CC;entryX=1.1;entryY=1;entryDx=0;entryDy=0;entryPerimeter=0;" parent="cL4TDwWrCyU1nzeevS6B-0" target="9CEmBnxMuOfZZKKR-i-K-3" edge="1"><mxGeometry x="0.1247" y="54" width="50" height="50" relative="1" as="geometry"><mxPoint x="61" y="240" as="sourcePoint"/><mxPoint x="120" y="240" as="targetPoint"/><Array as="points"><mxPoint x="80" y="260"/><mxPoint x="80" y="260"/></Array><mxPoint x="25" y="-68" as="offset"/></mxGeometry></mxCell><mxCell id="9CEmBnxMuOfZZKKR-i-K-3" value="" style="points=[];perimeter=orthogonalPerimeter;rounded=0;shadow=0;strokeWidth=1;" parent="cL4TDwWrCyU1nzeevS6B-0" vertex="1"><mxGeometry x="50" y="240" width="10" height="30" as="geometry"/></mxCell><mxCell id="TrmfId_XVrWB3Mz8C-cY-0" value="fazer log in (nºutente)" style="verticalAlign=bottom;startArrow=none;endArrow=open;startSize=8;shadow=0;strokeWidth=1;endFill=0;startFill=0;" parent="CQdg7doARLt-vxPC2LLc-1" edge="1"><mxGeometry x="-0.1481" y="2" relative="1" as="geometry"><mxPoint x="70" y="210" as="sourcePoint"/><mxPoint x="325" y="210" as="targetPoint"/><mxPoint as="offset"/></mxGeometry></mxCell><mxCell id="GpNQNSTM2PT17M-fcsV3-0" value="" style="endArrow=open;html=1;fontColor=#000000;endFill=0;" parent="CQdg7doARLt-vxPC2LLc-1" edge="1"><mxGeometry width="50" height="50" relative="1" as="geometry"><mxPoint x="340" y="220" as="sourcePoint"/><mxPoint x="570" y="220" as="targetPoint"/></mxGeometry></mxCell><mxCell id="GpNQNSTM2PT17M-fcsV3-1" value="&amp;lt;&amp;lt;create&amp;gt;&amp;gt;" style="edgeLabel;html=1;align=center;verticalAlign=middle;resizable=0;points=[];fontColor=#000000;" parent="GpNQNSTM2PT17M-fcsV3-0" vertex="1" connectable="0"><mxGeometry x="-0.4451" relative="1" as="geometry"><mxPoint x="8" y="-10" as="offset"/></mxGeometry></mxCell><mxCell id="o2HZ4nPBebn1Wd7SygwV-0" value="procurar utilizador (nºutente)" style="verticalAlign=bottom;endArrow=classic;shadow=0;strokeWidth=1;edgeStyle=elbowEdgeStyle;endFill=1;" parent="CQdg7doARLt-vxPC2LLc-1" edge="1"><mxGeometry x="-0.1898" relative="1" as="geometry"><mxPoint x="340" y="250" as="sourcePoint"/><mxPoint x="560" y="250" as="targetPoint"/><Array as="points"><mxPoint x="445" y="250"/></Array><mxPoint as="offset"/></mxGeometry></mxCell><mxCell id="zNFLos63OBNuDbGb0vV_-0" style="edgeStyle=elbowEdgeStyle;rounded=0;orthogonalLoop=1;jettySize=auto;html=1;dashed=1;endArrow=open;endFill=0;" parent="CQdg7doARLt-vxPC2LLc-1" edge="1"><mxGeometry relative="1" as="geometry"><mxPoint x="560" y="270" as="sourcePoint"/><mxPoint x="340" y="270" as="targetPoint"/><Array as="points"><mxPoint x="450" y="270"/></Array></mxGeometry></mxCell><mxCell id="3dSI_u8vLwY14we7doA0-1" value="obter consultas marcadas ()" style="verticalAlign=bottom;endArrow=classic;shadow=0;strokeWidth=1;edgeStyle=elbowEdgeStyle;endFill=1;" parent="CQdg7doARLt-vxPC2LLc-1" edge="1"><mxGeometry x="-0.1898" relative="1" as="geometry"><mxPoint x="340" y="290" as="sourcePoint"/><mxPoint x="560" y="290" as="targetPoint"/><Array as="points"><mxPoint x="445" y="290"/></Array><mxPoint as="offset"/></mxGeometry></mxCell><mxCell id="3dSI_u8vLwY14we7doA0-2" style="edgeStyle=elbowEdgeStyle;rounded=0;orthogonalLoop=1;jettySize=auto;html=1;dashed=1;endArrow=open;endFill=0;" parent="CQdg7doARLt-vxPC2LLc-1" edge="1"><mxGeometry relative="1" as="geometry"><mxPoint x="560" y="300" as="sourcePoint"/><mxPoint x="340" y="300" as="targetPoint"/><Array as="points"><mxPoint x="450" y="300"/></Array></mxGeometry></mxCell><mxCell id="lLBswofoQxWhm6jlhfQv-0" value="escolher consulta (ID especialidade, data, hora)" style="verticalAlign=bottom;startArrow=none;endArrow=open;startSize=8;shadow=0;strokeWidth=1;endFill=0;startFill=0;" parent="CQdg7doARLt-vxPC2LLc-1" edge="1"><mxGeometry x="0.0196" relative="1" as="geometry"><mxPoint x="70" y="330" as="sourcePoint"/><mxPoint x="325" y="330" as="targetPoint"/><mxPoint as="offset"/></mxGeometry></mxCell><mxCell id="EEG8P0nE-3Rp7fU6OOeX-0" value="cancelar consulta (data, hora)" style="verticalAlign=bottom;endArrow=classic;shadow=0;strokeWidth=1;edgeStyle=elbowEdgeStyle;endFill=1;" parent="CQdg7doARLt-vxPC2LLc-1" edge="1"><mxGeometry x="-0.1898" relative="1" as="geometry"><mxPoint x="340" y="340" as="sourcePoint"/><mxPoint x="560" y="340" as="targetPoint"/><Array as="points"><mxPoint x="445" y="340"/></Array><mxPoint as="offset"/></mxGeometry></mxCell><mxCell id="JBaC88lEgMjEXhtah7vK-1" value="" style="endArrow=open;html=1;fontSize=14;fontColor=#0000CC;entryX=1.3;entryY=0.909;entryDx=0;entryDy=0;entryPerimeter=0;endFill=0;dashed=1;" parent="CQdg7doARLt-vxPC2LLc-1" source="cL4TDwWrCyU1nzeevS6B-2" target="1dlvMJWvUST6Cndw6tlz-2" edge="1"><mxGeometry width="50" height="50" relative="1" as="geometry"><mxPoint x="340" y="450" as="sourcePoint"/><mxPoint x="390" y="400" as="targetPoint"/></mxGeometry></mxCell><mxCell id="JBaC88lEgMjEXhtah7vK-2" value="&lt;u&gt;&lt;font color=&quot;#000000&quot;&gt;Médico&lt;/font&gt;&lt;/u&gt;" style="shape=umlActor;verticalLabelPosition=bottom;verticalAlign=top;html=1;outlineConnect=0;fillColor=none;fontSize=14;fontColor=#0000CC;align=left;" parent="CQdg7doARLt-vxPC2LLc-1" vertex="1"><mxGeometry x="50" y="510" width="30" height="60" as="geometry"/></mxCell><mxCell id="JBaC88lEgMjEXhtah7vK-3" value="" style="endArrow=none;dashed=1;html=1;dashPattern=1 3;strokeWidth=2;fontSize=14;fontColor=#0000CC;" parent="CQdg7doARLt-vxPC2LLc-1" edge="1"><mxGeometry width="50" height="50" relative="1" as="geometry"><mxPoint x="65" y="960" as="sourcePoint"/><mxPoint x="65" y="600" as="targetPoint"/></mxGeometry></mxCell><mxCell id="JBaC88lEgMjEXhtah7vK-4" value="" style="endArrow=open;html=1;fontColor=#000000;endFill=0;" parent="CQdg7doARLt-vxPC2LLc-1" edge="1"><mxGeometry width="50" height="50" relative="1" as="geometry"><mxPoint x="70" y="610" as="sourcePoint"/><mxPoint x="329.5" y="610" as="targetPoint"/></mxGeometry></mxCell><mxCell id="JBaC88lEgMjEXhtah7vK-5" value="&amp;lt;&amp;lt;create&amp;gt;&amp;gt;" style="edgeLabel;html=1;align=center;verticalAlign=middle;resizable=0;points=[];fontColor=#000000;" parent="JBaC88lEgMjEXhtah7vK-4" vertex="1" connectable="0"><mxGeometry x="-0.4451" relative="1" as="geometry"><mxPoint x="8" y="-10" as="offset"/></mxGeometry></mxCell><mxCell id="JBaC88lEgMjEXhtah7vK-6" value=":Interface" style="shape=umlLifeline;perimeter=lifelinePerimeter;container=1;collapsible=0;recursiveResize=0;rounded=0;shadow=0;strokeWidth=1;" parent="CQdg7doARLt-vxPC2LLc-1" vertex="1"><mxGeometry x="280" y="550" width="100" height="410" as="geometry"/></mxCell><mxCell id="JBaC88lEgMjEXhtah7vK-7" value="" style="points=[];perimeter=orthogonalPerimeter;rounded=0;shadow=0;strokeWidth=1;" parent="JBaC88lEgMjEXhtah7vK-6" vertex="1"><mxGeometry x="45" y="90" width="10" height="100" as="geometry"/></mxCell><mxCell id="JBaC88lEgMjEXhtah7vK-8" value="" style="points=[];perimeter=orthogonalPerimeter;rounded=0;shadow=0;strokeWidth=1;" parent="JBaC88lEgMjEXhtah7vK-6" vertex="1"><mxGeometry x="45" y="210" width="10" height="160" as="geometry"/></mxCell><mxCell id="JBaC88lEgMjEXhtah7vK-9" value=":S.I." style="shape=umlLifeline;perimeter=lifelinePerimeter;container=1;collapsible=0;recursiveResize=0;rounded=0;shadow=0;strokeWidth=1;" parent="CQdg7doARLt-vxPC2LLc-1" vertex="1"><mxGeometry x="520" y="550" width="110" height="410" as="geometry"/></mxCell><mxCell id="JBaC88lEgMjEXhtah7vK-10" value="" style="points=[];perimeter=orthogonalPerimeter;rounded=0;shadow=0;strokeWidth=1;" parent="JBaC88lEgMjEXhtah7vK-9" vertex="1"><mxGeometry x="50" y="110" width="10" height="70" as="geometry"/></mxCell><mxCell id="JBaC88lEgMjEXhtah7vK-11" value="" style="points=[];perimeter=orthogonalPerimeter;rounded=0;shadow=0;strokeWidth=1;" parent="JBaC88lEgMjEXhtah7vK-9" vertex="1"><mxGeometry x="50" y="220" width="10" height="150" as="geometry"/></mxCell><mxCell id="9CEmBnxMuOfZZKKR-i-K-0" value="" style="points=[];perimeter=orthogonalPerimeter;rounded=0;shadow=0;strokeWidth=1;" parent="JBaC88lEgMjEXhtah7vK-9" vertex="1"><mxGeometry x="55" y="240" width="10" height="30" as="geometry"/></mxCell><mxCell id="9CEmBnxMuOfZZKKR-i-K-2" value="&lt;font color=&quot;#000000&quot;&gt;&lt;span style=&quot;font-size: 11px&quot;&gt;registar impossibilidade &lt;br&gt;do médico (nota)&lt;/span&gt;&lt;/font&gt;" style="endArrow=classic;html=1;fontSize=14;fontColor=#0000CC;exitX=1;exitY=0.067;exitDx=0;exitDy=0;exitPerimeter=0;entryX=1;entryY=1;entryDx=0;entryDy=0;entryPerimeter=0;" parent="JBaC88lEgMjEXhtah7vK-9" source="9CEmBnxMuOfZZKKR-i-K-0" target="9CEmBnxMuOfZZKKR-i-K-0" edge="1"><mxGeometry x="-0.0171" y="56" width="50" height="50" relative="1" as="geometry"><mxPoint x="160" y="180" as="sourcePoint"/><mxPoint x="153" y="204.9000000000001" as="targetPoint"/><Array as="points"><mxPoint x="90" y="255"/></Array><mxPoint x="21" y="-73" as="offset"/></mxGeometry></mxCell><mxCell id="JBaC88lEgMjEXhtah7vK-14" value="fazer log in (ID_médico)" style="verticalAlign=bottom;startArrow=none;endArrow=open;startSize=8;shadow=0;strokeWidth=1;endFill=0;startFill=0;" parent="CQdg7doARLt-vxPC2LLc-1" edge="1"><mxGeometry x="-0.1481" y="2" relative="1" as="geometry"><mxPoint x="70" y="640" as="sourcePoint"/><mxPoint x="325" y="640" as="targetPoint"/><mxPoint as="offset"/></mxGeometry></mxCell><mxCell id="JBaC88lEgMjEXhtah7vK-15" value="" style="endArrow=open;html=1;fontColor=#000000;endFill=0;" parent="CQdg7doARLt-vxPC2LLc-1" edge="1"><mxGeometry width="50" height="50" relative="1" as="geometry"><mxPoint x="340" y="650" as="sourcePoint"/><mxPoint x="570" y="650" as="targetPoint"/></mxGeometry></mxCell><mxCell id="JBaC88lEgMjEXhtah7vK-16" value="&amp;lt;&amp;lt;create&amp;gt;&amp;gt;" style="edgeLabel;html=1;align=center;verticalAlign=middle;resizable=0;points=[];fontColor=#000000;" parent="JBaC88lEgMjEXhtah7vK-15" vertex="1" connectable="0"><mxGeometry x="-0.4451" relative="1" as="geometry"><mxPoint x="8" y="-10" as="offset"/></mxGeometry></mxCell><mxCell id="JBaC88lEgMjEXhtah7vK-17" value="procurar utilizador (ID_médico)" style="verticalAlign=bottom;endArrow=classic;shadow=0;strokeWidth=1;edgeStyle=elbowEdgeStyle;endFill=1;entryX=-0.4;entryY=0.314;entryDx=0;entryDy=0;entryPerimeter=0;" parent="CQdg7doARLt-vxPC2LLc-1" target="JBaC88lEgMjEXhtah7vK-10" edge="1"><mxGeometry x="-0.1898" relative="1" as="geometry"><mxPoint x="340" y="680" as="sourcePoint"/><mxPoint x="560" y="680" as="targetPoint"/><Array as="points"><mxPoint x="445" y="680"/></Array><mxPoint as="offset"/></mxGeometry></mxCell><mxCell id="JBaC88lEgMjEXhtah7vK-18" style="edgeStyle=elbowEdgeStyle;rounded=0;orthogonalLoop=1;jettySize=auto;html=1;dashed=1;endArrow=open;endFill=0;" parent="CQdg7doARLt-vxPC2LLc-1" edge="1"><mxGeometry relative="1" as="geometry"><mxPoint x="560" y="700" as="sourcePoint"/><mxPoint x="340" y="700" as="targetPoint"/><Array as="points"><mxPoint x="450" y="700"/></Array></mxGeometry></mxCell><mxCell id="JBaC88lEgMjEXhtah7vK-19" value="obter consultas marcadas ()" style="verticalAlign=bottom;endArrow=classic;shadow=0;strokeWidth=1;edgeStyle=elbowEdgeStyle;endFill=1;entryX=-0.3;entryY=0.871;entryDx=0;entryDy=0;entryPerimeter=0;" parent="CQdg7doARLt-vxPC2LLc-1" target="JBaC88lEgMjEXhtah7vK-10" edge="1"><mxGeometry x="-0.1898" relative="1" as="geometry"><mxPoint x="340" y="720" as="sourcePoint"/><mxPoint x="560" y="720" as="targetPoint"/><Array as="points"><mxPoint x="445" y="720"/></Array><mxPoint as="offset"/></mxGeometry></mxCell><mxCell id="JBaC88lEgMjEXhtah7vK-20" style="edgeStyle=elbowEdgeStyle;rounded=0;orthogonalLoop=1;jettySize=auto;html=1;dashed=1;endArrow=open;endFill=0;" parent="CQdg7doARLt-vxPC2LLc-1" edge="1"><mxGeometry relative="1" as="geometry"><mxPoint x="560" y="730" as="sourcePoint"/><mxPoint x="340" y="730" as="targetPoint"/><Array as="points"><mxPoint x="450" y="730"/></Array></mxGeometry></mxCell><mxCell id="JBaC88lEgMjEXhtah7vK-21" value="escolher consulta (data, hora)" style="verticalAlign=bottom;startArrow=none;endArrow=open;startSize=8;shadow=0;strokeWidth=1;endFill=0;startFill=0;" parent="CQdg7doARLt-vxPC2LLc-1" edge="1"><mxGeometry x="0.0196" relative="1" as="geometry"><mxPoint x="70" y="760" as="sourcePoint"/><mxPoint x="325" y="760" as="targetPoint"/><mxPoint as="offset"/></mxGeometry></mxCell><mxCell id="JBaC88lEgMjEXhtah7vK-22" value="cancelar consulta (data, hora)" style="verticalAlign=bottom;endArrow=classic;shadow=0;strokeWidth=1;edgeStyle=elbowEdgeStyle;endFill=1;" parent="CQdg7doARLt-vxPC2LLc-1" edge="1"><mxGeometry x="-0.1898" relative="1" as="geometry"><mxPoint x="340" y="770" as="sourcePoint"/><mxPoint x="560" y="770" as="targetPoint"/><Array as="points"><mxPoint x="445" y="770"/></Array><mxPoint as="offset"/></mxGeometry></mxCell><mxCell id="JBaC88lEgMjEXhtah7vK-23" value="" style="endArrow=open;html=1;fontSize=14;fontColor=#0000CC;entryX=1.3;entryY=0.909;entryDx=0;entryDy=0;entryPerimeter=0;endFill=0;dashed=1;" parent="CQdg7doARLt-vxPC2LLc-1" source="JBaC88lEgMjEXhtah7vK-11" target="JBaC88lEgMjEXhtah7vK-8" edge="1"><mxGeometry width="50" height="50" relative="1" as="geometry"><mxPoint x="340" y="880" as="sourcePoint"/><mxPoint x="390" y="830" as="targetPoint"/></mxGeometry></mxCell><mxCell id="a9h55BWwg8-qO3GUL-rg-0" value=":Lista de Espera" style="shape=umlLifeline;perimeter=lifelinePerimeter;container=1;collapsible=0;recursiveResize=0;rounded=0;shadow=0;strokeWidth=1;" parent="CQdg7doARLt-vxPC2LLc-1" vertex="1"><mxGeometry x="710" y="550" width="90" height="410" as="geometry"/></mxCell><mxCell id="a9h55BWwg8-qO3GUL-rg-1" value="" style="points=[];perimeter=orthogonalPerimeter;rounded=0;shadow=0;strokeWidth=1;" parent="a9h55BWwg8-qO3GUL-rg-0" vertex="1"><mxGeometry x="40" y="320" width="10" height="30" as="geometry"/></mxCell><mxCell id="FUsdzSrJhcS6MfnR7BcT-0" value="" style="endArrow=open;html=1;fontColor=#000000;endFill=0;exitX=1.2;exitY=0.045;exitDx=0;exitDy=0;exitPerimeter=0;" parent="CQdg7doARLt-vxPC2LLc-1" edge="1"><mxGeometry width="50" height="50" relative="1" as="geometry"><mxPoint x="580" y="830" as="sourcePoint"/><mxPoint x="750" y="830" as="targetPoint"/></mxGeometry></mxCell><mxCell id="FUsdzSrJhcS6MfnR7BcT-1" value="&amp;lt;&amp;lt;create&amp;gt;&amp;gt;" style="edgeLabel;html=1;align=center;verticalAlign=middle;resizable=0;points=[];fontColor=#000000;" parent="FUsdzSrJhcS6MfnR7BcT-0" vertex="1" connectable="0"><mxGeometry x="-0.4451" relative="1" as="geometry"><mxPoint x="8" y="-10" as="offset"/></mxGeometry></mxCell><mxCell id="FAasVTULk0MUbPuoeqvA-1" value="" style="endArrow=classic;html=1;fontSize=14;fontColor=#0000CC;entryX=0;entryY=0.2;entryDx=0;entryDy=0;entryPerimeter=0;" parent="CQdg7doARLt-vxPC2LLc-1" target="a9h55BWwg8-qO3GUL-rg-1" edge="1"><mxGeometry width="50" height="50" relative="1" as="geometry"><mxPoint x="580" y="876" as="sourcePoint"/><mxPoint x="660" y="870" as="targetPoint"/></mxGeometry></mxCell><mxCell id="FAasVTULk0MUbPuoeqvA-2" value="&lt;span style=&quot;color: rgb(0 , 0 , 0) ; font-size: 11px&quot;&gt;adicionar à lista de&amp;nbsp;espera&lt;/span&gt;&lt;br style=&quot;padding: 0px ; margin: 0px ; color: rgb(0 , 0 , 0) ; font-size: 11px&quot;&gt;&lt;span style=&quot;color: rgb(0 , 0 , 0) ; font-size: 11px&quot;&gt;&amp;nbsp;(nºutente, ID:especialidade)&lt;/span&gt;" style="edgeLabel;html=1;align=center;verticalAlign=middle;resizable=0;points=[];fontSize=14;fontColor=#0000CC;" parent="FAasVTULk0MUbPuoeqvA-1" vertex="1" connectable="0"><mxGeometry x="0.2706" relative="1" as="geometry"><mxPoint x="-28" y="-26" as="offset"/></mxGeometry></mxCell><mxCell id="FAasVTULk0MUbPuoeqvA-3" value="" style="endArrow=open;html=1;fontSize=14;fontColor=#0000CC;exitX=-0.2;exitY=0.933;exitDx=0;exitDy=0;exitPerimeter=0;dashed=1;endFill=0;" parent="CQdg7doARLt-vxPC2LLc-1" source="a9h55BWwg8-qO3GUL-rg-1" edge="1"><mxGeometry width="50" height="50" relative="1" as="geometry"><mxPoint x="400" y="810" as="sourcePoint"/><mxPoint x="580" y="898" as="targetPoint"/></mxGeometry></mxCell><mxCell id="9CEmBnxMuOfZZKKR-i-K-4" value="" style="points=[];perimeter=orthogonalPerimeter;rounded=0;shadow=0;strokeWidth=1;" parent="CQdg7doARLt-vxPC2LLc-1" vertex="1"><mxGeometry x="570" y="400" width="10" height="30" as="geometry"/></mxCell><mxCell id="CnfjWErCILpYxdEy-Enq-1" value="&lt;font color=&quot;#000000&quot;&gt;&lt;span style=&quot;font-size: 11px&quot;&gt;registar desistência&amp;nbsp;do utente (nota)&lt;/span&gt;&lt;/font&gt;" style="endArrow=classic;html=1;fontSize=14;fontColor=#0000CC;exitX=0.8;exitY=0;exitDx=0;exitDy=0;exitPerimeter=0;entryX=1.3;entryY=0.9;entryDx=0;entryDy=0;entryPerimeter=0;" parent="CQdg7doARLt-vxPC2LLc-1" source="9CEmBnxMuOfZZKKR-i-K-4" target="cL4TDwWrCyU1nzeevS6B-2" edge="1"><mxGeometry x="0.1033" y="82" width="50" height="50" relative="1" as="geometry"><mxPoint x="600" y="410" as="sourcePoint"/><mxPoint x="578" y="430" as="targetPoint"/><Array as="points"><mxPoint x="600" y="420"/></Array><mxPoint x="46" y="-95" as="offset"/></mxGeometry></mxCell></root></mxGraphModel></diagram></mxfile>